<?xml version="1.0" encoding="UTF-8"?>
<!-- Generator: visioncortex VTracer 0.6.4 -->
<svg version="1.1" xmlns="http://www.w3.org/2000/svg" width="764" height="764">
<path d="M0 0 C252.12 0 504.24 0 764 0 C764 252.12 764 504.24 764 764 C511.88 764 259.76 764 0 764 C0 511.88 0 259.76 0 0 Z " fill="#FDFDFD" transform="translate(0,0)"/>
<path d="M0 0 C252.12 0 504.24 0 764 0 C764 252.12 764 504.24 764 764 C511.88 764 259.76 764 0 764 C0 511.88 0 259.76 0 0 Z M323 30 C321.93 30.18 320.86 30.36 319.76 30.55 C271.29 38.84 223.28 57.6 183 86 C182.46 86.37 181.93 86.75 181.38 87.13 C169.57 95.35 158.06 103.96 147.48 113.73 C145.47 115.57 143.43 117.35 141.36 119.12 C136.22 123.62 131.39 128.42 126.56 133.25 C125.67 134.13 124.78 135.01 123.87 135.91 C117.8 141.96 112.32 148.3 107 155 C105.99 156.23 104.97 157.46 103.95 158.69 C92.32 172.87 82.05 188.05 73 204 C72.54 204.81 72.07 205.63 71.6 206.46 C41.78 259.19 25.48 318.27 25.69 378.88 C25.69 379.95 25.69 381.02 25.69 382.13 C25.73 399.27 26.45 416.02 29 433 C29.14 434 29.29 435 29.44 436.03 C38.42 496.81 63.77 556.54 103 604 C103.44 604.53 103.88 605.06 104.33 605.61 C113.68 616.91 123.51 627.69 133.88 638.06 C134.79 638.99 135.71 639.92 136.65 640.88 C142.79 647.03 149.19 652.61 156 658 C157.16 658.94 158.31 659.88 159.47 660.83 C204.61 696.89 257.96 721.32 314.56 732.62 C315.99 732.92 315.99 732.92 317.44 733.21 C338.31 737.21 359.22 738.53 380.44 738.38 C381.59 738.37 382.75 738.37 383.94 738.36 C400.81 738.29 417.34 737.82 434 735 C435.62 734.74 435.62 734.74 437.28 734.48 C500.16 724.39 560.29 698.3 609 657 C609.94 656.24 610.89 655.48 611.86 654.7 C620.52 647.64 628.41 639.81 636.31 631.94 C636.87 631.38 637.43 630.83 638.01 630.26 C645.15 623.17 651.76 615.9 658 608 C659 606.79 660 605.58 661.01 604.38 C673.64 589.1 684.4 572.32 694 555 C694.47 554.16 694.93 553.33 695.41 552.46 C721.43 505.35 737.71 450.26 738.27 396.2 C738.29 395.09 738.3 393.98 738.31 392.85 C738.55 366.82 737.95 341.59 733 316 C732.75 314.71 732.51 313.41 732.25 312.08 C720.44 252.2 692.56 194.66 652 149 C651.37 148.28 650.74 147.57 650.09 146.83 C644.48 140.51 638.64 134.46 632.67 128.49 C631.13 126.94 629.59 125.39 628.06 123.83 C621.7 117.44 615.08 111.6 608 106 C606.79 105 605.59 104 604.38 102.99 C589.1 90.36 572.32 79.6 555 70 C554.16 69.53 553.33 69.07 552.46 68.59 C504.65 42.18 449.37 26.19 394.54 25.76 C392.96 25.75 392.96 25.75 391.35 25.73 C368.21 25.56 345.81 25.85 323 30 Z " fill="#FEFEFE" transform="translate(0,0)"/>
<path d="M0 0 C2.49 0.37 4.97 0.69 7.47 0.99 C69.17 8.86 130.53 38.49 177.67 78.4 C178.7 79.26 179.73 80.12 180.76 80.98 C188.79 87.73 196.39 94.8 203.77 102.24 C205.5 103.97 207.23 105.7 208.97 107.42 C215.65 114.09 221.86 120.95 227.67 128.4 C228.24 129.11 228.81 129.83 229.39 130.56 C237.75 141.12 245.43 152.06 252.67 163.4 C253.07 164.02 253.47 164.64 253.88 165.28 C277.39 202.44 293.46 244.26 301.67 287.4 C301.8 288.06 301.93 288.72 302.06 289.4 C309.72 329.37 309.8 372.34 302.67 412.4 C302.46 413.63 302.25 414.86 302.02 416.13 C294.23 459.75 278.59 502.96 254.67 540.4 C254.21 541.13 253.75 541.85 253.27 542.6 C243.14 558.35 232.07 573.35 219.67 587.4 C218.72 588.49 218.72 588.49 217.74 589.6 C212.27 595.75 206.59 601.67 200.77 607.49 C199.3 608.96 197.84 610.44 196.38 611.92 C190.15 618.19 183.62 623.93 176.67 629.4 C175.49 630.36 174.31 631.31 173.13 632.26 C159.62 642.99 145.66 652.83 130.67 661.4 C129.99 661.8 129.31 662.19 128.61 662.6 C79.23 691.09 21.46 709.21 -35.87 709.64 C-36.94 709.65 -38.02 709.66 -39.13 709.67 C-62.84 709.84 -85.94 709.68 -109.33 705.4 C-110.5 705.19 -111.67 704.98 -112.87 704.77 C-173.49 693.64 -230.12 666.93 -277.33 627.4 C-278.29 626.61 -279.25 625.81 -280.25 625 C-287.69 618.83 -294.69 612.35 -301.49 605.49 C-303.08 603.89 -304.68 602.31 -306.28 600.72 C-312.74 594.27 -318.65 587.56 -324.33 580.4 C-325.28 579.26 -326.23 578.13 -327.2 577 C-371.41 524.15 -397.29 456.55 -404.33 388.4 C-404.42 387.5 -404.52 386.6 -404.62 385.68 C-405.66 374.36 -405.57 363 -405.58 351.65 C-405.58 350.01 -405.58 350.01 -405.58 348.33 C-405.57 333.41 -405.32 318.78 -402.78 304.04 C-402.31 301.28 -401.89 298.52 -401.48 295.76 C-392.99 240.62 -370.31 185.12 -335.69 141.15 C-334.38 139.47 -333.09 137.77 -331.81 136.06 C-322.03 123.01 -311.2 111.09 -299.7 99.53 C-298.98 98.8 -298.98 98.8 -298.24 98.05 C-291.62 91.37 -284.68 85.27 -277.33 79.4 C-276.29 78.53 -275.25 77.65 -274.22 76.76 C-229.18 38.06 -169.69 11.07 -111.16 1.85 C-109.19 1.54 -107.22 1.2 -105.25 0.85 C-71.15 -5.15 -34.23 -5.18 0 0 Z M-264.33 102.4 C-265.18 103.16 -266.04 103.92 -266.92 104.7 C-269.41 106.92 -271.87 109.16 -274.33 111.4 C-275.27 112.24 -276.22 113.08 -277.19 113.95 C-288.28 123.86 -298.11 134.74 -307.33 146.4 C-308.08 147.34 -308.83 148.27 -309.61 149.24 C-364.67 218.89 -387.44 307.09 -377.96 394.76 C-370.23 458.31 -342.73 520.46 -300.33 568.4 C-299.58 569.25 -298.83 570.09 -298.06 570.96 C-295.84 573.46 -293.58 575.93 -291.33 578.4 C-290.37 579.46 -289.41 580.53 -288.45 581.59 C-282.4 588.28 -276.17 594.51 -269.33 600.4 C-268.3 601.31 -267.28 602.22 -266.26 603.13 C-213.26 649.94 -146.33 676.67 -76.33 683.4 C-75.02 683.53 -73.7 683.67 -72.35 683.8 C10.51 691.01 97.21 662.1 160.74 609.05 C164.44 605.9 168.07 602.67 171.67 599.4 C172.26 598.87 172.86 598.33 173.46 597.78 C181.54 590.45 189.5 583.08 196.62 574.8 C198.17 572.99 199.74 571.2 201.33 569.41 C235.34 530.85 258.56 483.91 271.67 434.4 C271.91 433.51 272.15 432.63 272.39 431.71 C277.98 410.33 281.17 387.49 281.67 365.4 C281.7 364.49 281.74 363.58 281.77 362.64 C283.94 293.59 263.67 222.94 223.67 166.4 C222.88 165.29 222.88 165.29 222.08 164.15 C214.17 153.04 205.83 142.5 196.67 132.4 C196.14 131.81 195.61 131.22 195.05 130.61 C187.73 122.53 180.35 114.57 172.07 107.46 C170.26 105.91 168.47 104.33 166.69 102.75 C110.06 52.8 34.93 24.49 -40.33 22.4 C-41.11 22.37 -41.9 22.35 -42.71 22.32 C-122.7 19.82 -204.43 49.41 -264.33 102.4 Z " fill="#222020" transform="translate(431.326171875,28.5986328125)"/>
<path d="M0 0 C5.39 -0.27 8.52 -0.36 13 3 C13.33 2.34 13.66 1.68 14 1 C19.56 0.63 19.56 0.63 21.69 2.44 C22.12 2.95 22.55 3.47 23 4 C23.99 4.33 24.98 4.66 26 5 C26 4.01 26 3.02 26 2 C29.99 2.56 32.53 3.76 35.81 6.06 C36.6 6.61 37.39 7.16 38.21 7.72 C38.8 8.14 39.39 8.57 40 9 C40.33 7.68 40.66 6.36 41 5 C45.77 6.4 48.96 9.15 52 13 C52 13.66 52 14.32 52 15 C52.66 15 53.32 15 54 15 C54 13.68 54 12.36 54 11 C58.26 11.2 60.43 12.08 63.38 15.06 C64.24 16.03 65.11 17 66 18 C66.66 17.34 67.32 16.68 68 16 C70.65 16.21 71.78 16.79 73.7 18.63 C74.47 19.59 74.47 19.59 75.25 20.56 C76.03 21.52 76.03 21.52 76.83 22.5 C77.21 23 77.6 23.49 78 24 C78.45 23.51 78.91 23.01 79.38 22.5 C81 21 81 21 83 20.94 C85.96 22.51 86.53 25.07 88 28 C90.02 28.73 90.02 28.73 92 29 C94.21 32.31 94.25 33.34 94.19 37.19 C94.17 38.16 94.16 39.13 94.14 40.13 C94.02 42.65 93.75 45.07 93.38 47.56 C93.19 49.26 93.19 49.26 93 51 C93.66 51.66 94.32 52.32 95 53 C95.48 57.06 95.16 61.12 94.44 65.12 C93.91 68.61 94.38 71.55 95 75 C91.69 74.88 91.69 74.88 88 74 C86.23 71.47 85.32 69.13 84.48 66.16 C82.81 60.52 80.3 55.61 77.44 50.5 C77.04 49.78 76.64 49.06 76.22 48.32 C74.26 44.54 74.26 44.54 71 42 C71.22 43.83 71.22 43.83 71.44 45.69 C71.63 47.32 71.81 48.94 72 50.56 C72.1 51.36 72.19 52.16 72.29 52.99 C72.83 57.69 73.1 62.26 73 67 C69.74 65.61 68.05 64.09 65.88 61.31 C62.45 57.23 58.64 54.53 54.23 51.59 C50.56 48.98 48.52 45.84 46.19 42.06 C44.33 39.47 42.98 38.06 40.56 36.12 C37.21 33.41 35.39 30.54 33.27 26.83 C31.32 24.02 28.89 22.75 26 21 C26 20.34 26 19.68 26 19 C24.35 18.34 22.7 17.68 21 17 C21.44 20.74 22.59 23.1 24.77 26.13 C26.32 28.49 27.54 30.98 28.81 33.5 C31.15 37.88 33.43 40.57 37.35 43.54 C39.23 45.2 40.22 46.82 41.44 49 C43.71 52.95 46.42 54.99 50.13 57.55 C52.9 59.7 54.33 61.93 56 65 C56 65.66 56 66.32 56 67 C52.53 66.51 49.07 66.01 45.62 65.38 C44.76 65.25 43.89 65.13 43 65 C42.67 65.33 42.34 65.66 42 66 C40.66 66.09 39.31 66.11 37.96 66.1 C37.16 66.09 36.35 66.09 35.51 66.09 C34.66 66.08 33.81 66.07 32.94 66.06 C32.08 66.06 31.23 66.05 30.35 66.05 C28.23 66.04 26.12 66.02 24 66 C28.6 70.6 36.82 71.54 43 73 C35.32 79.35 25.54 79.45 16 79 C16 77.68 16 76.36 16 75 C15.4 74.75 14.79 74.5 14.17 74.24 C11.68 72.81 10.74 71.56 9.25 69.12 C8.82 68.45 8.39 67.77 7.95 67.07 C7 65 7 65 7 61 C8.49 60.5 8.49 60.5 10 60 C9.64 59.53 9.28 59.06 8.91 58.57 C8.44 57.95 7.98 57.33 7.5 56.69 C7.04 56.07 6.57 55.46 6.09 54.82 C5 53 5 53 5 50 C5.99 50 6.98 50 8 50 C7.65 49.34 7.3 48.67 6.94 47.99 C6.49 47.11 6.03 46.22 5.56 45.31 C4.88 44.01 4.88 44.01 4.19 42.68 C3.04 40.09 2.44 37.79 2 35 C2.99 35 3.98 35 5 35 C4.71 34.48 4.42 33.96 4.12 33.43 C0.44 26.5 0.44 26.5 1 22 C1.66 22 2.32 22 3 22 C2.7 21.34 2.4 20.67 2.09 19.99 C1.71 19.11 1.33 18.22 0.94 17.31 C0.55 16.44 0.17 15.57 -0.22 14.68 C-1.09 11.68 -0.85 9.97 0 7 C0.66 7 1.32 7 2 7 C1.67 6.4 1.34 5.8 1 5.19 C0 3 0 3 0 0 Z " fill="#222121" transform="translate(190,190)"/>
<path d="M0 0 C1.69 -0.04 1.69 -0.04 3.42 -0.07 C5.04 -0.08 5.04 -0.08 6.7 -0.09 C8.17 -0.1 8.17 -0.1 9.67 -0.11 C13.04 0.51 14.23 1.71 16.31 4.38 C16.48 6.86 16.48 6.86 16.06 9.56 C15.88 11.03 15.88 11.03 15.69 12.53 C15.5 13.94 15.5 13.94 15.31 15.38 C14.12 27.14 18.44 38.46 23.94 48.65 C25.23 51.21 26.09 53.62 26.88 56.38 C28.14 60.42 29.63 62.09 33.31 64.38 C33.94 64.69 34.56 65.01 35.2 65.33 C40.96 68.44 42.94 71.93 45.82 77.72 C50.48 86.03 59.42 89.4 68 92.38 C72.13 93.82 75.04 95.4 78.31 98.38 C82.11 100.99 86.14 100.6 90.56 100.5 C91.31 100.49 92.05 100.48 92.82 100.47 C94.65 100.45 96.48 100.41 98.31 100.38 C98.64 101.69 98.97 103.01 99.31 104.38 C92.21 110.46 85.06 111.73 75.88 111.67 C72.4 111.27 69.82 109.89 66.73 108.32 C63.83 107.19 61.35 107.03 58.25 106.88 C53.45 106.63 50.54 105.73 46.43 103.34 C43.76 102.12 41.29 101.82 38.38 101.44 C28.14 99.93 22.65 95.23 16.31 87.38 C13.73 84.61 11.52 82.51 8.31 80.5 C2.12 76.11 -0.71 69.62 -3.56 62.81 C-5.94 57.29 -8.4 51.89 -11.19 46.56 C-14.66 39.77 -17.33 32.74 -19.94 25.57 C-21.54 21.19 -23.28 17.38 -25.69 13.38 C-25.69 9.19 -25.42 7.17 -22.56 4.06 C-15.37 -0.16 -8.15 0.01 0 0 Z " fill="#232121" transform="translate(276.6875,471.625)"/>
<path d="M0 0 C0.5 1.49 0.5 1.49 1 3 C-0.7 5.45 -0.7 5.45 -3.12 8.25 C-3.95 9.23 -4.78 10.21 -5.64 11.21 C-6.42 12.13 -7.2 13.05 -8 14 C-10.57 17.23 -12.73 20.14 -14 24.12 C-15.26 27.76 -17.2 29.4 -20 32 C-24.49 36.43 -24.77 40.25 -25 46.25 C-25.09 47.46 -25.09 47.46 -25.19 48.7 C-25.47 54.28 -24.37 57.76 -21.9 62.71 C-20.31 66.74 -20.67 70.79 -20.75 75.06 C-20.62 85.05 -18.03 91.79 -12.98 100.27 C-11.54 102.81 -10.48 105.49 -9.38 108.19 C-5.66 116.35 0.37 118.88 8.2 122.57 C11 124 11 124 13.06 125.62 C15.38 127.27 17.08 127.55 19.88 127.94 C27.42 129.3 31.97 133.49 37 139 C37 139.66 37 140.32 37 141 C28.81 145.23 20.68 142.63 12.33 140.27 C7.06 138.26 3.08 135.35 -0.75 131.25 C-10.28 121.47 -16.69 116.84 -30.37 116.54 C-34.48 115.93 -36.09 114.9 -39 112 C-41.78 107.68 -42.62 103.46 -43.38 98.46 C-43.89 95.89 -43.89 95.89 -45.53 93.56 C-47.26 90.54 -47.39 88.52 -47.5 85.06 C-47.84 79.47 -48.79 75.53 -52.55 71.22 C-54.39 68.41 -54.51 66.27 -54.81 62.94 C-55.45 57.94 -56.58 54.49 -59.19 50.19 C-61.17 46.85 -62.47 44.61 -62.12 40.69 C-60.9 36.68 -59.78 34.14 -57 31 C-55.32 30.24 -53.64 29.48 -51.93 28.79 C-48.78 27.5 -45.74 26 -42.69 24.5 C-41.76 24.06 -41.76 24.06 -40.81 23.61 C-37.56 22 -36.05 21.08 -34 18 C-33.27 14.98 -32.67 11.96 -32.07 8.91 C-30.7 5.18 -29.44 3.98 -26 2 C-23.2 1.58 -20.74 1.35 -17.94 1.31 C-11.86 1.13 -6.05 -0.14 0 0 Z " fill="#232121" transform="translate(199,283)"/>
<path d="M0 0 C6.5 0.27 10.37 2.47 15 7 C20.49 13.68 23.95 18.52 24.38 27.25 C24.91 35.27 24.91 35.27 29 42 C29.86 51.65 29.08 58.03 22.94 65.51 C22.18 66.41 21.41 67.32 20.62 68.25 C14.88 75.07 11 82.41 8.44 90.94 C7.09 95.13 5.64 97.32 2 100 C-0.97 101.28 -3.98 102.44 -6.99 103.61 C-10.71 105.33 -13.36 107.52 -16.28 110.35 C-23.13 116.92 -30.36 116.42 -39.42 116.29 C-47.45 115.96 -54.03 113.41 -60 108 C-63.24 106.92 -65.79 106.86 -69.19 106.75 C-77.02 106.18 -81.61 103.7 -87 98.12 C-90.81 93.41 -93.42 87.89 -96.17 82.52 C-97.9 79.07 -97.9 79.07 -99.76 76.21 C-101 74 -101 74 -100.69 71.19 C-100.35 70.1 -100.35 70.1 -100 69 C-97.08 68.56 -94.87 68.45 -92.31 70.05 C-91.71 70.53 -91.12 71.01 -90.5 71.5 C-78.84 80.78 -65.92 87.14 -50.64 85.71 C-45.52 85.02 -40.52 83.85 -35.5 82.62 C-34.17 82.31 -34.17 82.31 -32.82 81.99 C-21.73 79.32 -13.72 77.36 -7 67.5 C-3.27 62.03 0.48 58.4 6.62 55.81 C7.38 55.49 8.14 55.17 8.91 54.83 C10.59 54.16 12.29 53.57 14 53 C15.14 50.7 15.14 50.7 16 48 C16.37 47.22 16.74 46.43 17.12 45.62 C19.14 39.59 17.76 34.52 15.75 28.72 C15 26 15 26 14.8 22.02 C14.43 18.7 13.7 17.27 11.13 15.14 C9.96 14.3 8.77 13.48 7.56 12.69 C1.16 8.24 1.16 8.24 -1 5 C-0.62 2.31 -0.62 2.31 0 0 Z " fill="#232121" transform="translate(431,438)"/>
<path d="M0 0 C18.54 -0.81 18.54 -0.81 25.99 5.75 C30.59 10.17 30.59 10.17 32 13 C31.99 16.25 31.87 19.49 31.74 22.74 C32.03 26.38 33.07 27.97 35 31 C35.86 35.86 35.59 39.86 33.31 44.25 C31.7 46.17 30.07 48.09 28.44 50 C25.92 52.82 25.92 52.82 24.74 55.94 C22.59 59.72 20.53 60.86 16.75 62.94 C8.51 67.7 3.38 72.86 -1.54 80.98 C-4.76 85.44 -9.05 86.92 -14.06 88.75 C-20.16 91.05 -25.28 93.87 -30.54 97.78 C-33.77 99.38 -35.57 98.95 -39 98 C-40.34 97.01 -41.68 96.01 -43 95 C-44.3 94.49 -45.62 94.01 -46.94 93.56 C-50.59 92.27 -52.99 90.47 -56 88 C-57.11 87.55 -58.23 87.09 -59.38 86.62 C-66.21 83.56 -69.95 79.21 -74 73 C-74.79 72.43 -75.57 71.85 -76.38 71.26 C-79.51 68.56 -81.05 65.62 -82.75 61.94 C-83.2 61 -83.2 61 -83.67 60.04 C-86.46 54.23 -87.1 50.34 -87 44 C-83.61 43.59 -82.3 43.79 -79.46 45.79 C-78.63 46.58 -77.8 47.37 -76.94 48.19 C-76.1 48.96 -75.26 49.74 -74.4 50.54 C-72 53 -72 53 -69.96 55.73 C-67.78 58.26 -66.92 58.65 -63.69 59.06 C-60.44 59.61 -58.28 60.28 -55.56 62.12 C-51.33 64.8 -46.85 64.54 -42 64 C-41.34 63.67 -40.68 63.34 -40 63 C-35.82 62.79 -32.76 62.77 -28.75 64 C-20.91 66.14 -20.91 66.14 -13 65 C-2.59 56.88 5.93 43.72 7.62 30.69 C7.76 29.13 7.88 27.56 8 26 C8.1 25.19 8.2 24.39 8.3 23.55 C8.83 16.9 6.85 13.51 2.63 8.42 C0.73 5.59 0.34 3.36 0 0 Z " fill="#232121" transform="translate(284,311)"/>
<path d="M0 0 C0.66 1.32 1.32 2.64 2 4 C1.01 5.49 1.01 5.49 0 7 C0.52 12.74 1.89 18.26 5 23.12 C7.64 27.42 7.94 32.08 8.51 37.01 C9.3 41.85 10.85 44.14 14.62 47.19 C21.7 53.2 27.27 60.03 32.26 67.84 C35.7 72.12 40.17 73.49 45.25 75.19 C53.49 78.3 58.97 82.96 64 90.12 C70.45 99.1 82.52 103.76 92 109 C92 109.66 92 110.32 92 111 C83.33 114.44 73.84 117.24 64.79 113.53 C63.39 112.88 62 112.2 60.62 111.5 C59.89 111.14 59.15 110.77 58.39 110.4 C48.69 105.49 41.19 99.31 33.76 91.5 C29.48 87.15 24.82 84.26 19.52 81.31 C14.06 78.21 9.79 74.54 5.27 70.16 C1.31 66.39 -0.8 64.69 -6.38 64.5 C-11.66 64.14 -15.74 63.37 -19.54 59.39 C-21.86 55.6 -22.45 51.33 -23.29 47.02 C-24.15 43.07 -24.72 41.3 -27.6 38.27 C-31.58 33.93 -30.68 28.17 -30.56 22.62 C-30.57 21.53 -30.58 20.43 -30.6 19.3 C-30.53 12.42 -29.6 7.88 -26 2 C-24.34 2.03 -24.34 2.03 -22.64 2.07 C-21.18 2.09 -19.71 2.11 -18.25 2.12 C-17.52 2.14 -16.79 2.16 -16.04 2.18 C-10.14 2.23 -5.85 -0.27 0 0 Z " fill="#232121" transform="translate(440,338)"/>
<path d="M0 0 C1.45 1.02 1.45 1.02 2.94 2.06 C6.11 4.07 8.31 4.61 11.94 5.38 C17.78 6.74 21.03 8.55 25 13 C25.68 13.73 26.36 14.47 27.06 15.23 C31.51 20.38 33.9 24.96 35.95 31.41 C37.39 34.95 39.59 37.18 42.2 39.91 C44.92 43.07 46.68 46.63 48.59 50.32 C50.2 53.38 52.01 56.26 53.92 59.15 C57.3 64.94 58.03 70.4 57 77 C55.67 79.93 54.11 82.58 52.44 85.32 C51 87.99 50.48 89.96 50.06 92.94 C48.83 100.85 43.88 107.5 39.25 113.88 C36.93 116.92 36.93 116.92 35.38 120.25 C34.12 122.75 33.23 124.33 31 126 C30.01 126 29.02 126 28 126 C28.39 121.08 28.85 116.3 30.06 111.5 C31.31 106.28 31.94 100.38 30.48 95.14 C29.95 92.79 29.98 90.84 30.11 88.44 C30.5 78.61 30.68 71.51 25.39 62.91 C23.15 58.23 23.32 53.53 23.3 48.45 C22.87 43.51 21.33 40.22 17.69 36.88 C15.9 35.63 14.09 34.42 12.25 33.25 C9.49 31.34 7.3 29.42 4.88 27.12 C-2.44 20.52 -11.22 16.31 -21 15 C-22.17 14.84 -22.17 14.84 -23.37 14.67 C-37.29 13.08 -52.28 11.97 -64.64 19.64 C-67 21 -67 21 -70 21 C-69.93 18.03 -69.67 15.81 -67.73 13.48 C-63.61 9.82 -58.99 7.04 -54.23 4.3 C-52.45 3.26 -50.72 2.14 -49 1 C-46.36 0.25 -43.74 -0.43 -41.06 -1.06 C-40.35 -1.24 -39.63 -1.41 -38.89 -1.59 C-36.93 -2.06 -34.96 -2.53 -33 -3 C-32.34 -3.18 -31.69 -3.36 -31.01 -3.54 C-20.99 -5.83 -9.05 -4.78 0 0 Z " fill="#232121" transform="translate(565,271)"/>
<path d="M0 0 C2.76 1.12 4.85 2.48 7.05 4.48 C10.49 6.94 13.23 7.37 17.39 8.03 C25.77 9.37 25.77 9.37 28.83 12.47 C29.92 14.52 29.92 14.52 30.77 16.78 C32.01 19.81 33.2 22.16 35.39 24.59 C40.69 30.84 41.82 37.55 42.12 45.5 C42.37 53.6 42.37 53.6 44.39 61.41 C46.67 67.37 47.09 72.47 44.57 78.45 C41.17 84.67 37.14 89.64 31.94 94.43 C29.74 96.45 29.74 96.45 27.89 99.01 C25.64 101.69 23.52 103.13 20.52 104.91 C17.18 106.92 14.35 108.8 11.64 111.59 C6.79 116 -0.12 117.15 -6.28 118.91 C-12.48 120.74 -17.84 123.19 -23.23 126.72 C-28.14 129.81 -31.45 130.02 -37.17 129.47 C-37.5 128.48 -37.83 127.49 -38.17 126.47 C-37.25 126.09 -36.33 125.71 -35.38 125.32 C-16.17 117.06 -0.81 108.12 10.83 90.47 C11.96 87.07 12.01 84.23 12.14 80.66 C12.51 75.12 12.95 71.67 16.83 67.47 C18.08 66.42 18.08 66.42 19.36 65.35 C22.54 61.64 23 58.7 23.64 53.97 C23.76 53.22 23.88 52.48 24.01 51.71 C24.59 47.93 24.97 44.3 24.83 40.47 C23.94 40.32 23.05 40.18 22.14 40.03 C18.43 38.28 18.23 37.74 16.58 34.22 C13.66 28.49 9.75 25.81 3.83 23.47 C0.64 22.8 -2.46 22.36 -5.7 22.09 C-8.82 21.53 -10.9 20.75 -13.74 19.46 C-19.94 16.87 -25.9 16.8 -32.55 16.72 C-33.71 16.69 -34.87 16.66 -36.07 16.63 C-40.44 16.52 -44.8 16.47 -49.17 16.47 C-47.83 10.93 -43.85 7.41 -39.17 4.47 C-36.73 3.84 -34.57 3.6 -32.05 3.54 C-30.08 3.6 -30.08 3.6 -28.17 2.47 C-25.1 1.91 -22.01 1.44 -18.92 0.97 C-5.8 -1.42 -5.8 -1.42 0 0 Z " fill="#232121" transform="translate(417.171875,159.53125)"/>
<path d="M0 0 C1 -0.01 1 -0.01 2.02 -0.01 C3.42 -0.01 4.83 -0.01 6.23 0.01 C8.37 0.03 10.5 0.01 12.64 -0.02 C14.01 -0.01 15.38 -0.01 16.75 0 C17.99 0 19.22 0.01 20.49 0.01 C25.27 0.73 28.4 2.83 31.62 6.38 C34.94 11.31 34.94 11.31 34.94 13.53 C35.51 13.52 36.08 13.51 36.67 13.5 C44.82 13.8 51.21 17.05 57.94 21.53 C59.94 24.53 59.94 24.53 59.63 27.16 C58.94 29.53 58.94 29.53 57.94 30.53 C53.83 31.07 51.17 30.24 47.5 28.59 C41.51 26.22 35.86 26.2 29.5 26.09 C21.59 25.95 15.79 25.2 8.62 21.62 C0.78 18.42 -8.25 20.16 -15.96 23 C-20.27 25.13 -24.01 27.85 -27.83 30.75 C-31.58 33.58 -35.25 35.71 -39.56 37.66 C-48.55 41.96 -51.26 48.5 -54.7 57.49 C-56.07 60.56 -57.71 62.81 -59.75 65.47 C-65.06 73.39 -64.75 83.28 -65.06 92.53 C-65.1 93.32 -65.14 94.11 -65.18 94.93 C-65.34 100.08 -64.52 103.93 -62.56 108.78 C-59.53 116.36 -59.53 116.36 -60.06 120.53 C-61.05 121.52 -61.05 121.52 -62.06 122.53 C-64 122.43 -64 122.43 -66.06 121.53 C-71.05 115.46 -73.67 107.91 -76.06 100.53 C-76.43 99.46 -76.81 98.4 -77.19 97.3 C-80.73 86.76 -81.51 77.92 -77.06 67.53 C-74.73 63.43 -72.08 59.71 -68.99 56.15 C-66.85 53.25 -66.01 50.87 -65.06 47.41 C-64.73 46.26 -64.39 45.12 -64.05 43.95 C-63.72 42.82 -63.4 41.69 -63.06 40.53 C-59.94 30.56 -55.52 20.02 -46.06 14.53 C-42.78 13.38 -39.52 12.43 -36.14 11.59 C-32.97 10.71 -32.97 10.71 -30.66 8.48 C-26.75 5.56 -22.64 5.69 -17.94 5.4 C-14.44 5.09 -12.45 4.87 -9.76 2.52 C-6.31 -0.02 -4.25 0.02 0 0 Z " fill="#232121" transform="translate(383.05859375,398.46875)"/>
<path d="M0 0 C3.44 0.25 3.44 0.25 7 1 C9.5 4.76 9.69 8.19 10.12 12.56 C10.21 13.38 10.29 14.19 10.37 15.03 C10.59 17.35 10.8 19.68 11 22 C11.15 23.48 11.15 23.48 11.3 24.99 C11.65 31.06 9.8 35.55 7.3 41.04 C6.09 43.8 5.19 46.48 4.38 49.38 C3.58 52.19 2.8 54.38 1.44 57 C0.1 59.8 -0.41 61.86 -0.94 64.88 C-1.68 69.01 -2.91 72.18 -4.92 75.85 C-6.66 79.32 -7.83 83 -9.07 86.68 C-10 89 -10 89 -12 91 C-15.07 91.13 -18.04 91.14 -21.1 91.05 C-22.47 91.02 -22.47 91.02 -23.86 90.99 C-25.79 90.94 -27.72 90.89 -29.66 90.83 C-32.59 90.75 -35.53 90.69 -38.46 90.63 C-40.34 90.58 -42.22 90.53 -44.1 90.48 C-44.97 90.47 -45.84 90.45 -46.74 90.43 C-53.22 90.23 -58.83 89.06 -65 87 C-70.52 86.72 -70.52 86.72 -75.81 88 C-83.5 90.41 -90.31 89.46 -97.42 85.88 C-97.94 85.59 -98.46 85.3 -99 85 C-98.02 82.55 -97.38 81.24 -95.12 79.8 C-93.08 79.03 -91.2 78.53 -89.06 78.12 C-85.27 77.34 -81.68 76.27 -78 75.06 C-72.81 73.42 -67.73 72.36 -62.38 71.5 C-52.42 69.86 -44.13 67.26 -35.88 61.27 C-34 60 -34 60 -31 59 C-30.31 57.68 -29.65 56.34 -29 55 C-27.59 53.31 -26.15 51.65 -24.69 50 C-20.61 45.13 -18.34 40.52 -16.12 34.62 C-14.62 31.11 -13.02 29.29 -10 27 C-9.34 27 -8.68 27 -8 27 C-3.99 19.09 -1.58 12.33 -1.18 3.37 C-1 1 -1 1 0 0 Z " fill="#232121" transform="translate(618,386)"/>
<path d="M0 0 C1.4 0.03 1.4 0.03 2.82 0.05 C5.11 0.1 7.4 0.17 9.69 0.25 C6.53 3.89 3.56 5.36 -0.94 7 C-2.08 7.43 -3.23 7.86 -4.41 8.3 C-7.31 9.25 -7.31 9.25 -9.31 9.25 C-9.31 9.91 -9.31 10.57 -9.31 11.25 C-5.98 11.31 -2.65 11.34 0.69 11.38 C2.09 11.4 2.09 11.4 3.52 11.43 C9.3 11.47 14.13 10.82 19.69 9.25 C23.19 9.12 23.19 9.12 25.69 9.25 C20.85 15.44 15.5 20.19 8.56 23.94 C4.86 26.92 3.45 30.25 1.31 34.44 C-2.51 41.05 -8.76 45.78 -14.65 50.51 C-16.63 52.59 -17.31 54.58 -18.31 57.25 C-15.14 55.21 -11.98 53.17 -8.81 51.12 C-7.93 50.56 -7.04 49.99 -6.12 49.4 C5.18 42.17 5.18 42.17 14.05 32.34 C17.1 28.45 20.92 25.4 24.69 22.25 C25.64 21.42 26.59 20.6 27.56 19.75 C29.69 18.25 29.69 18.25 32.69 18.25 C31.93 24.68 31.93 24.68 30.65 27.67 C29.6 30.49 29.53 32.35 29.71 35.33 C29.76 36.26 29.81 37.19 29.87 38.15 C29.93 39.11 30 40.07 30.06 41.06 C30.12 42.04 30.18 43.02 30.23 44.03 C30.38 46.44 30.53 48.84 30.69 51.25 C31.35 51.25 32.01 51.25 32.69 51.25 C32.91 50.13 32.91 50.13 33.13 48.99 C33.79 45.62 34.46 42.25 35.12 38.88 C35.36 37.7 35.59 36.52 35.82 35.31 C36.04 34.19 36.27 33.07 36.5 31.91 C36.7 30.88 36.9 29.84 37.11 28.77 C37.69 26.25 37.69 26.25 38.69 24.25 C40.69 24.25 40.69 24.25 43.19 26.62 C44.01 27.49 44.84 28.36 45.69 29.25 C46.68 30.24 46.68 30.24 47.69 31.25 C48.43 33.06 49.11 34.9 49.75 36.75 C51.06 40.57 51.06 40.57 52.69 44.25 C52.76 45.79 52.77 47.33 52.75 48.88 C52.74 49.69 52.73 50.51 52.72 51.35 C52.71 51.98 52.7 52.6 52.69 53.25 C49.55 54.29 48.7 54.18 45.69 53.25 C45.35 53.76 45.01 54.26 44.66 54.78 C40.71 60.07 40.71 60.07 37.61 60.61 C35.64 60.51 33.66 60.38 31.69 60.25 C29.68 61.58 29.68 61.58 28.69 63.25 C27.7 62.92 26.71 62.59 25.69 62.25 C25.69 61.59 25.69 60.93 25.69 60.25 C22.07 61.47 22.07 61.47 19.25 63.94 C18.73 64.37 18.22 64.8 17.69 65.25 C14.75 64.94 14.75 64.94 11.69 64.25 C7.81 63.84 7.81 63.84 5.75 65.75 C3.22 67.59 1.75 67.51 -1.31 67.25 C-1.64 65.93 -1.97 64.61 -2.31 63.25 C-6.43 65.89 -6.43 65.89 -10.12 69.06 C-12.78 70.5 -13.65 70.18 -16.56 69.69 C-21.17 68.95 -23.61 69.97 -27.49 72.44 C-29.81 73.47 -30.96 73.08 -33.31 72.25 C-32.88 68.82 -31.86 66.35 -30.19 63.38 C-28.47 60.15 -28.25 59.58 -29 55.81 C-29.38 51.48 -28.56 50.76 -25.94 47.44 C-24.73 46.04 -23.52 44.64 -22.31 43.25 C-21.98 42.59 -21.65 41.93 -21.31 41.25 C-22.3 41.25 -23.29 41.25 -24.31 41.25 C-23.87 35.76 -22.53 32.68 -19.31 28.25 C-18.98 27.26 -18.65 26.27 -18.31 25.25 C-18.97 25.25 -19.63 25.25 -20.31 25.25 C-19.91 20.84 -18.11 18.29 -15.47 14.9 C-14.12 13.14 -14.12 13.14 -13.31 10.25 C-14.3 10.25 -15.29 10.25 -16.31 10.25 C-16.07 6.72 -15.76 4.76 -13.41 2.06 C-8.94 -0.55 -5.07 -0.19 0 0 Z " fill="#242222" transform="translate(205.3125,490.75)"/>
<path d="M0 0 C2.6 1.75 4.81 3.76 7 6 C6.01 6.33 5.02 6.66 4 7 C4.35 7.6 4.7 8.21 5.06 8.83 C5.51 9.63 5.97 10.43 6.44 11.25 C6.89 12.04 7.34 12.83 7.81 13.64 C8.89 15.79 9.53 17.65 10 20 C9.01 20 8.02 20 7 20 C7.62 20.93 8.24 21.86 8.88 22.81 C13 29 13 29 13 32 C12.34 32 11.68 32 11 32 C11.62 32.93 12.24 33.86 12.88 34.81 C17 41 17 41 16.75 43.12 C16 45 16 45 14 46 C14.43 46.48 14.87 46.96 15.31 47.46 C15.87 48.09 16.43 48.72 17 49.38 C17.56 50 18.11 50.63 18.69 51.27 C20 53 20 53 20 55 C19.34 55 18.68 55 18 55 C18.47 56.05 18.95 57.1 19.44 58.19 C20.69 61.1 21.52 63.85 22 67 C20.4 67.03 18.79 67.05 17.19 67.06 C15.85 67.08 15.85 67.08 14.48 67.1 C12 67 12 67 9 66 C9 66.99 9 67.98 9 69 C3.77 69.38 0.62 68.22 -4 66 C-4 66.66 -4 67.32 -4 68 C-9.28 67.46 -13.26 66.23 -18 64 C-18 64.99 -18 65.98 -18 67 C-22.67 67.33 -25.17 66.71 -29 64 C-29.33 64.66 -29.66 65.32 -30 66 C-35.66 66.57 -39.23 64.71 -44 62 C-44.33 62.66 -44.66 63.32 -45 64 C-49.56 63.56 -52.58 63.15 -56 60 C-56 60.66 -56 61.32 -56 62 C-58.38 62.12 -58.38 62.12 -61 62 C-63 60 -63 60 -63.46 57 C-63.3 51.66 -60.29 47.42 -57.62 42.94 C-53.1 35.3 -53.1 35.3 -50 27 C-47.38 28 -46.21 28.63 -44.8 31.1 C-44.34 32.35 -44.34 32.35 -43.88 33.62 C-43.54 34.52 -43.21 35.42 -42.86 36.34 C-42.13 38.6 -41.56 40.8 -41.06 43.12 C-40.05 47.58 -37.94 51.5 -35 55 C-33.51 55.5 -33.51 55.5 -32 56 C-32.45 54.95 -32.91 53.9 -33.38 52.81 C-34.8 49.09 -35.39 45.57 -35.88 41.62 C-36.63 36.09 -38.16 31.88 -40.88 27.02 C-42 25 -42 25 -43 22 C-37.09 22.37 -32.47 26.51 -28.44 30.57 C-26.23 32.77 -23.59 34.29 -21 36 C-20.24 36.66 -19.47 37.32 -18.69 38 C-16.3 39.77 -14.52 40.67 -11.81 41.75 C-6.96 43.78 -3.38 46.8 0.62 50.16 C3.63 52.49 6.42 53.76 10 55 C7.92 51.19 5.45 48.05 2.59 44.82 C1.56 43.64 0.56 42.44 -0.41 41.21 C-3.77 36.98 -7.35 34.27 -11.91 31.4 C-14.62 29.59 -16.7 27.3 -19 25 C-20.48 24 -21.99 23.02 -23.5 22.06 C-27.53 19.46 -30.23 16.92 -33 13 C-33 12.34 -33 11.68 -33 11 C-31.82 11.27 -30.65 11.54 -29.44 11.81 C-23.73 13.09 -18 14.2 -12.26 15.32 C-9 16 -9 16 -6 17 C-3.67 17.04 -1.33 17.04 1 17 C-7.83 12.91 -16.92 9.49 -26 6 C-25.67 5.01 -25.34 4.02 -25 3 C-23.81 2.93 -23.81 2.93 -22.59 2.85 C-15.04 2.32 -7.38 -1.04 0 0 Z " fill="#242223" transform="translate(572,491)"/>
<path d="M0 0 C2.88 0.31 2.88 0.31 3.88 1.31 C4.17 2.87 4.44 4.43 4.69 6 C5.36 9.66 5.9 11.35 8.06 14.5 C10.4 18.13 9.68 20.31 8.88 24.31 C8.72 25.09 8.57 25.86 8.41 26.65 C6.15 37.62 3.55 47.56 -2.12 57.31 C-5.37 63.11 -7.57 68.6 -9.12 75.06 C-10.73 81.47 -12.07 85.74 -17.83 89.39 C-20.98 90.65 -24 90.89 -27.38 91.25 C-33.39 91.93 -33.39 91.93 -39.06 93.94 C-43.55 95.93 -48.34 95.47 -53.14 95.2 C-56.83 95.06 -59.5 95.32 -62.91 96.79 C-68.05 98.91 -73.07 98.79 -78.56 98.75 C-79.55 98.77 -80.53 98.79 -81.55 98.81 C-87.87 98.81 -93.88 98.17 -99.12 94.31 C-100.19 90.56 -100.19 90.56 -100.12 87.31 C-98.53 85.77 -98.53 85.77 -96.12 84.31 C-93.13 84.41 -93.13 84.41 -89.69 84.94 C-82.83 85.62 -78.64 84.28 -72.43 81.52 C-67.74 79.81 -63.28 79.71 -58.32 79.65 C-54.55 79.25 -52.3 78.39 -49.12 76.31 C-47.17 73.65 -47.17 73.65 -45.69 70.56 C-40.4 61.05 -34.14 56.39 -24.9 50.95 C-19.9 47.98 -15.36 45.03 -12.88 39.56 C-12.27 36.93 -11.96 34.61 -11.75 31.94 C-11.45 28.63 -10.84 26.52 -9.12 23.69 C-6.3 18.69 -6.59 13.29 -6.5 7.7 C-5.97 2.87 -5.01 0.5 0 0 Z " fill="#232122" transform="translate(468.125,505.6875)"/>
<path d="M0 0 C0.99 1.49 0.99 1.49 2 3 C2.66 2.67 3.32 2.34 4 2 C6.04 1.93 8.08 1.92 10.12 1.94 C11.22 1.95 12.32 1.96 13.45 1.96 C14.71 1.98 14.71 1.98 16 2 C16.08 6.85 15.91 11.22 15 16 C14.9 17.16 14.79 18.31 14.69 19.5 C13.87 23.65 12.52 25.66 10 29 C10.99 29 11.98 29 13 29 C12.34 33.39 10.81 36.98 9 41 C9.66 41 10.32 41 11 41 C10.53 46.01 9.1 48.15 6 52 C5.67 53.2 5.34 54.39 5 55.62 C4 59 4 59 2.38 60.94 C-1.21 62.54 -4.09 62.26 -8 62 C-8.33 61.67 -8.66 61.34 -9 61 C-12.81 60.77 -15.82 60.95 -19.5 62 C-23.22 63.06 -26.16 63.3 -30 63 C-30.99 62.34 -31.98 61.68 -33 61 C-32.67 59.35 -32.34 57.7 -32 56 C-31.07 55.84 -30.14 55.68 -29.18 55.52 C-20.51 53.93 -11.86 52.17 -4 48 C-3.67 47.01 -3.34 46.02 -3 45 C-3.99 45.5 -3.99 45.5 -5 46 C-7.02 46.13 -9.04 46.23 -11.06 46.31 C-16.49 46.67 -20.32 47.76 -25.12 50.21 C-27.68 51.29 -29.45 50.99 -32 50 C-30.93 47.28 -30.05 46.04 -27.69 44.25 C-25.14 42.12 -24.28 40.88 -22.75 38.06 C-20.76 34.64 -19.06 33.26 -15.5 31.56 C-10.84 29.29 -9.38 26.73 -7.19 22.14 C-5.95 19.91 -4.81 18.74 -2.81 17.19 C-0.1 15.07 0.66 14.02 2 11 C-8.69 16.35 -8.69 16.35 -16.45 25.15 C-18.5 27.59 -20.67 28.44 -23.56 29.75 C-28.51 32.15 -29.92 34.15 -31.75 39.31 C-32.1 40.36 -32.45 41.4 -32.81 42.47 C-34 45 -34 45 -35.85 46 C-37.81 46.25 -37.81 46.25 -41 46 C-40.51 42.88 -40 40 -39 37 C-38.93 34.26 -38.91 31.55 -38.94 28.81 C-38.94 28.06 -38.95 27.31 -38.95 26.54 C-38.96 24.69 -38.98 22.85 -39 21 C-41.21 23.21 -41.61 24.5 -42.5 27.44 C-43.42 30.46 -44.21 32.31 -46 35 C-46.28 38.22 -46.41 41.4 -46.48 44.64 C-46.56 46.63 -46.56 46.63 -47 50 C-47.99 50.66 -48.98 51.32 -50 52 C-52 50 -51.44 46.16 -51.62 43.45 C-51.86 40.75 -51.86 40.75 -54 38 C-54.14 36.74 -54.29 35.48 -54.44 34.19 C-55.14 30.95 -55.83 30.13 -58.57 28.14 C-61.34 26.65 -64.12 25.27 -67 24 C-66.5 20.04 -65.76 18.28 -62.62 15.81 C-62.02 15.32 -61.41 14.84 -60.79 14.33 C-56.31 11 -56.31 11 -53 11 C-53 11.99 -53 12.98 -53 14 C-51.74 13.35 -51.74 13.35 -50.45 12.69 C-49.35 12.13 -48.25 11.57 -47.12 11 C-46.03 10.44 -44.94 9.89 -43.82 9.31 C-41 8 -41 8 -39 8 C-39 8.66 -39 9.32 -39 10 C-38.49 9.65 -37.98 9.3 -37.46 8.94 C-33.31 6.19 -30.09 4.38 -25 4 C-24.34 4.99 -23.68 5.98 -23 7 C-22.11 6.18 -21.23 5.35 -20.31 4.5 C-17.99 2.54 -17.25 2.03 -14.12 1.69 C-13.07 1.84 -13.07 1.84 -12 2 C-12 2.66 -12 3.32 -12 4 C-10.95 3.34 -9.9 2.68 -8.81 2 C-5.75 0.26 -3.58 -0.72 0 0 Z " fill="#242222" transform="translate(569,195)"/>
<path d="M0 0 C4.8 0.36 7.41 1.7 11.12 4.69 C15.01 7.67 18.74 9.96 23.19 12 C28.18 14.36 31.42 17.07 35.13 21.11 C38.92 24.95 43.59 27.29 48.38 29.69 C51 31 51 31 53 33 C53.2 36.48 53.12 39.48 52.31 42.88 C51.99 46.09 52.26 46.95 53.44 49.81 C55.17 54.47 55.34 58.84 55.38 63.75 C55.39 64.48 55.4 65.22 55.42 65.97 C55.38 70.5 54.79 73.41 52 77 C50 78.67 48 80.33 46 82 C44.98 83.65 43.97 85.32 43 87 C39.59 90 39.59 90 37 90 C36.76 91.37 36.76 91.37 36.52 92.77 C36.17 94.56 36.17 94.56 35.81 96.38 C35.59 97.56 35.37 98.74 35.14 99.96 C34 103 34 103 31.39 104.41 C30.21 104.7 30.21 104.7 29 105 C27.5 103.87 27.5 103.87 26 102 C25.79 98.96 26 96.05 26.19 93.01 C25.97 89.51 24.89 87.9 23 85 C22.48 82.89 22.48 82.89 22.19 80.81 C21.44 76.9 20.04 74.21 17.88 70.88 C15.21 66.61 14.01 64.13 15 59 C15.84 57.32 16.69 55.66 17.56 54 C20.86 47.23 20.89 40.23 19 33 C16.6 30.35 16.6 30.35 14 28 C12.81 25.5 12.81 25.5 12 23 C10.38 18.6 8.61 16.09 5 13 C1.57 10.03 0.17 8.73 -0.88 4.25 C-0.92 3.18 -0.96 2.11 -1 1 C-0.67 0.67 -0.34 0.34 0 0 Z " fill="#232121" transform="translate(315,297)"/>
<path d="M0 0 C3 -0.56 3 -0.56 6 0 C7.69 1.52 7.69 1.52 9 4 C9.14 7.56 9.02 10.99 8.79 14.54 C8.65 18.6 8.85 21.22 11 24.73 C13.02 28.04 13.65 29.26 13 33 C9.8 40.27 5.48 46.09 -1.94 49.25 C-5 50 -5 50 -8.56 50.25 C-12.59 51.13 -12.95 52.22 -15.26 55.4 C-18.53 58.41 -22.99 59.23 -27.16 60.58 C-32.42 62.39 -37.01 65.26 -41.75 68.13 C-44.11 69.49 -46.26 70.58 -48.75 71.6 C-52.08 72.84 -52.08 72.84 -54.56 75.25 C-57 77 -57 77 -59.69 77 C-77.32 71.68 -77.32 71.68 -83 66 C-83.56 60.71 -83.56 60.71 -81.73 58.4 C-79.81 56.85 -78.29 56.22 -75.94 55.5 C-75.15 55.25 -74.36 55 -73.54 54.75 C-71.82 54.24 -70.09 53.75 -68.36 53.29 C-63.37 51.9 -59.87 50.63 -56 47 C-53.73 45.86 -52.15 45.8 -49.62 45.62 C-45.75 45.24 -44.04 44.45 -41 42 C-39.8 41.72 -38.6 41.43 -37.36 41.14 C-32.97 40.1 -29.27 38.38 -25.31 36.25 C-24.68 35.93 -24.04 35.61 -23.38 35.27 C-17.99 32.41 -14.35 29.08 -11.85 23.36 C-11.59 22.5 -11.33 21.64 -11.06 20.75 C-9.12 14.96 -6.28 10.12 -3 5 C-2.51 4.09 -2.01 3.18 -1.5 2.25 C-1.01 1.5 -0.51 0.76 0 0 Z " fill="#232121" transform="translate(455,262)"/>
<path d="M0 0 C-0.53 3.91 -1.43 5.95 -4.12 8.81 C-6.93 11.83 -6.93 11.83 -9.6 14.98 C-16.05 22.93 -24.14 28.58 -33.15 33.28 C-41.38 37.58 -46.15 41.87 -51 50 C-51.54 50.68 -52.07 51.37 -52.62 52.07 C-58.31 60.04 -56.91 74.7 -56 84 C-54.71 91.35 -52.69 98.64 -49.33 105.32 C-48 108 -48 108 -48 111 C-54.38 110.09 -58.14 107.09 -62 102 C-64.05 97.54 -65.37 92.86 -66.71 88.14 C-67.47 85.47 -68.18 83.7 -69.65 81.29 C-71.3 78.49 -71.34 76.79 -71.25 73.56 C-71.23 72.5 -71.2 71.45 -71.18 70.36 C-71 67.02 -70.73 63.7 -70.44 60.38 C-69.63 50.16 -70.14 39.72 -71.88 29.62 C-71.92 28.43 -71.96 27.23 -72 26 C-68.27 22.08 -64.94 21.37 -59.69 20.62 C-54 19.69 -50.16 18.3 -45.82 14.47 C-43.8 12.84 -41.91 12.01 -39.5 11.06 C-35.13 9.28 -32.11 6.74 -28.73 3.49 C-22.1 -2.23 -8.13 -0.12 0 0 Z " fill="#222121" transform="translate(364,166)"/>
<path d="M0 0 C3.37 1.12 4.02 1.98 6.19 4.69 C11.93 11.37 18.14 15.15 26 18.94 C32.18 21.92 37.19 25.03 42 30 C42.88 30.85 42.88 30.85 43.78 31.71 C46.89 34.73 49.73 37.86 52.5 41.19 C56.48 45.8 60.9 48.88 67 50 C69.67 50.14 72.31 50.23 74.98 50.28 C76.13 50.31 76.13 50.31 77.3 50.34 C80.57 50.42 83.84 50.48 87.12 50.55 C89.51 50.6 91.9 50.66 94.29 50.72 C95.03 50.73 95.77 50.75 96.54 50.76 C101.77 50.89 101.77 50.89 104 52 C103.88 54.75 103.88 54.75 103 58 C100.31 60.12 100.31 60.12 97 62 C96.03 62.76 95.06 63.53 94.06 64.31 C90.14 66.47 88.3 66 84 65 C79.87 63.98 79.87 63.98 76 65 C69.62 65.73 63.34 64.71 57.06 63.62 C56.32 63.5 55.57 63.37 54.8 63.24 C51.29 62.6 49.01 62 46 60 C42.15 59.56 40.12 59.94 36.56 61.56 C32.38 63.25 30.28 63.4 26 62 C23.72 58.78 22.99 55.97 22.12 52.12 C20.47 44.95 16.17 40.04 11 35 C6.6 29.94 3.74 24.69 1.18 18.52 C0.11 15.96 0.11 15.96 -1.66 13.96 C-3.34 11.5 -3.23 10.35 -2.81 7.44 C-2.72 6.67 -2.62 5.91 -2.52 5.12 C-2 3 -2 3 0 0 Z " fill="#232121" transform="translate(145,412)"/>
<path d="M0 0 C1.88 0.25 1.88 0.25 4 1 C6.11 4.21 6.25 6.98 6.38 10.75 C6.75 16.39 7.81 21.81 12 26 C12.65 31.06 13.32 36.56 10.82 41.17 C6.77 45.39 1.61 48.15 -3.35 51.17 C-6.67 53.46 -9 56.1 -11.51 59.22 C-13.42 61.5 -15.67 63.17 -18 65 C-18.62 65.82 -19.24 66.65 -19.88 67.5 C-23.45 71.71 -27.45 73.61 -32.69 74.94 C-36.66 76.21 -37.5 77.78 -40 81 C-42.88 82.5 -42.88 82.5 -46 83 C-50.01 81.54 -51.62 80.58 -54 77 C-56.45 76.41 -58.77 75.98 -61.25 75.62 C-80.63 72.42 -80.63 72.42 -85.95 67.03 C-86.47 66.02 -86.47 66.02 -87 65 C-86.67 64.01 -86.34 63.02 -86 62 C-81.01 61.89 -76.28 62.28 -71.33 62.98 C-68.99 63.19 -68.99 63.19 -67.14 62 C-64 60.54 -61.36 61.15 -57.94 61.44 C-52.02 61.7 -48.53 60.62 -43.94 56.75 C-42.27 55.19 -40.62 53.61 -39 52 C-35.36 49.18 -32.38 47.75 -28 46.56 C-20.14 44.35 -14.75 38.46 -10 32 C-8.19 28.21 -7.38 24.42 -6.56 20.31 C-3.4 5.1 -3.4 5.1 0 0 Z " fill="#232122" transform="translate(318,373)"/>
<path d="M0 0 C0.89 0.25 1.77 0.5 2.69 0.75 C2.55 6.96 0.17 10.25 -3.5 15.15 C-5.22 17.62 -6.38 19.94 -7.56 22.69 C-10.14 28.13 -14.05 31.56 -18.38 35.66 C-23.64 40.92 -27.4 47.47 -31.31 53.75 C-35.7 53.13 -39.27 51.41 -43.19 49.44 C-48.5 46.83 -53.62 44.98 -59.38 43.62 C-68.61 41.29 -68.61 41.29 -72.31 36.75 C-74.15 33.48 -75.87 30.19 -77.5 26.81 C-79.13 23.63 -79.13 23.63 -81.96 21.72 C-84.31 19.75 -84.31 19.75 -85.12 16.5 C-85.19 15.59 -85.25 14.69 -85.31 13.75 C-76.76 13.13 -70.74 14.03 -62.96 17.63 C-57.44 19.97 -52.65 18.68 -47.1 17.32 C-44.2 16.73 -41.31 16.37 -38.38 16.05 C-25.07 14.58 -15.99 10.31 -5.66 1.48 C-3.31 -0.25 -3.31 -0.25 0 0 Z " fill="#232121" transform="translate(582.3125,385.25)"/>
<path d="M0 0 C3.94 2.6 6.34 6.3 9.12 10.05 C12.18 13.44 15.11 14.51 19.46 15.63 C21.43 16.61 21.43 16.61 22.28 19.08 C22.43 21.61 22.43 21.61 21.43 23.61 C19.4 23.98 19.4 23.98 16.93 24.17 C13.88 24.18 13.88 24.18 11.43 25.61 C1.95 26.56 -5.58 25.76 -14.26 21.81 C-18.99 19.7 -22.94 19.07 -28.07 18.89 C-30.89 18.57 -32.89 17.72 -35.44 16.48 C-38.66 14.92 -38.66 14.92 -42.19 14.61 C-44.81 15.71 -47.18 17.1 -49.61 18.57 C-52.37 20.03 -55.25 20.81 -58.26 21.6 C-64.23 24.2 -67.97 29.02 -71.57 34.23 C-72 34.84 -72.42 35.45 -72.87 36.08 C-77.24 42.43 -81.76 49.02 -83.75 56.54 C-84.57 59.61 -85.33 61.37 -87.57 63.61 C-88.56 63.61 -89.55 63.61 -90.57 63.61 C-92.11 60.53 -91.79 58.02 -91.57 54.61 C-89.38 48.36 -89.38 48.36 -87.02 46.18 C-85.21 44.22 -84.99 42.85 -84.57 40.23 C-83.44 34.64 -81.77 31.48 -77.19 28.04 C-71.37 23.29 -69.25 15.64 -67.5 8.54 C-66.4 5.09 -65.59 4.47 -62.57 2.61 C-54.41 -0.01 -45.74 0.57 -37.29 0.71 C-31.21 0.76 -25.98 0.03 -20.12 -1.71 C-13.18 -3.57 -6.57 -2.84 0 0 Z " fill="#242323" transform="translate(282.56640625,274.39453125)"/>
<path d="M0 0 C0.45 5.61 0.16 10.02 -2 15.25 C-4.21 21.29 -4.42 26.95 -4.44 33.31 C-4.45 34.26 -4.46 35.2 -4.47 36.17 C-4.37 43.96 -2.76 49.29 2.31 55.38 C4.76 58.38 6.94 61.4 9 64.69 C11.42 68.45 14.06 71.01 17.68 73.61 C19 75 19 75 19 79 C17.87 78.86 16.73 78.71 15.56 78.56 C14.47 78.43 14.47 78.43 13.35 78.29 C11.8 78.1 10.26 77.89 8.71 77.68 C7.96 77.58 7.21 77.48 6.44 77.38 C5.76 77.28 5.07 77.18 4.37 77.09 C1.82 76.9 1.82 76.9 -1.35 77.69 C-8.93 78.34 -16.06 72.24 -21.92 67.78 C-28.32 62.28 -35.28 55.37 -36.27 46.58 C-36.5 40.45 -35.85 36.56 -32.39 31.46 C-31 30 -31 30 -28 29 C-26.96 27.19 -26.96 27.19 -26 25 C-21.12 17.33 -9.91 0 0 0 Z " fill="#232121" transform="translate(490,304)"/>
<path d="M0 0 C10.07 0 16.99 8.66 24 15 C27.83 18.45 31.6 21.79 35.88 24.69 C39.29 27.21 40.59 28.84 41.37 32.97 C41.52 37.72 40.78 40.79 38.56 45 C36.09 49.94 35.54 54.02 35.38 59.44 C35.14 66.67 34.12 73.04 32 80 C31.6 81.4 31.2 82.79 30.8 84.19 C30.37 85.65 29.93 87.1 29.5 88.56 C29.2 89.6 29.2 89.6 28.89 90.66 C26.95 96.95 26.95 96.95 24 99 C21.38 99.25 21.38 99.25 19 99 C18 98 18 98 17.88 94.69 C18 91 18 91 18.48 89.13 C20.69 80.07 18.78 72.55 15.15 64.32 C12.96 59.26 12.25 55.42 13 50 C14.19 42.33 14.19 42.33 12 35 C10.03 33.64 10.03 33.64 8 33 C7.67 32.67 7.34 32.34 7 32 C7.14 29.85 7.29 27.71 7.44 25.56 C7.52 19.77 6.84 16.91 3.06 12.5 C2.33 11.77 1.6 11.04 0.85 10.28 C-1.41 7.49 -1.85 5.56 -2 2 C-1.34 1.34 -0.68 0.68 0 0 Z " fill="#232121" transform="translate(466,443)"/>
<path d="M0 0 C5.09 0.45 8.14 2.97 12 6.06 C12.63 6.56 13.25 7.05 13.9 7.56 C17.82 10.76 20.65 13.78 23.01 18.3 C24.36 20.61 26.28 22.05 28.39 23.65 C32.81 27.35 36.78 32.23 40 37 C39.76 39.91 38.87 42.4 38 45.19 C36.67 50.25 36.3 55.28 35.86 60.48 C34.83 64.71 33.24 66.19 30 69 C27.73 72.07 26.07 74.84 24.62 78.38 C22.57 82.97 19.67 88.66 15 91 C13 91.04 11 91.04 9 91 C7.97 86.86 8.02 83.13 8.19 78.88 C8.33 72.71 7.19 67.97 4.84 62.29 C3.66 59.06 3.76 57.2 5 54 C5.84 53.01 6.67 52.03 7.53 51.01 C10.94 46.31 10.7 41.76 10.56 36.12 C10.57 35.18 10.58 34.24 10.6 33.27 C10.52 25.77 8.97 19.32 3.88 13.62 C0.95 9.53 0.65 4.91 0 0 Z " fill="#232121" transform="translate(467,195)"/>
<path d="M0 0 C4.2 0.06 7.51 1.52 11.32 3.18 C14.23 4.38 17.17 5.32 20.19 6.25 C26.54 8.33 32.28 10.63 36.06 16.31 C36.56 17.76 37.01 19.22 37.44 20.69 C38.69 24.64 40.39 27.12 43.06 30.31 C45.55 36.04 45.96 40.84 43.81 46.75 C41.63 50.28 38.68 51.97 35.19 54.12 C30.77 56.86 28.31 58.93 25.94 63.56 C23.38 68.46 20.82 70.08 15.61 71.77 C11.96 72.55 8.78 72.59 5.06 72.31 C3.43 65.94 4.75 61.93 8.06 56.31 C11.57 51.88 15.98 49.45 20.86 46.74 C23.32 45.35 23.32 45.35 25.06 42.31 C24.82 37.93 23.01 35.68 20.19 32.44 C17.73 29.52 15.77 27.16 14.62 23.5 C12.61 19.39 10.4 18.61 6.42 16.62 C2.17 14.26 -1.98 11.06 -3.62 6.34 C-3.94 4.44 -3.94 4.44 -3.94 1.31 C-2.94 0.31 -2.94 0.31 0 0 Z " fill="#232121" transform="translate(386.9375,427.6875)"/>
<path d="M0 0 C1.88 0.12 1.88 0.12 4 1 C4.59 2.14 4.59 2.14 5.19 3.31 C7.54 6.8 9.87 7.51 13.68 9.04 C16.25 10.1 18.59 11.45 20.98 12.86 C24.64 14.92 28.45 16.7 32.23 18.54 C35 20 35 20 36.93 21.56 C42.79 25.64 50.51 25.58 57.42 26.12 C62.23 26.58 65.75 27.5 70 30 C70 33.24 69.55 35.35 67.43 37.85 C62.98 41.95 58.8 44.39 53 46 C51.57 46.4 51.57 46.4 50.12 46.8 C48.19 47.33 46.26 47.85 44.32 48.35 C42 48.92 42 48.92 40 50 C34.42 50.67 31.28 49.51 26.79 46.43 C23.51 43.82 21.44 41.27 20.06 37.31 C19.2 34.8 19.2 34.8 16.69 33.88 C15.8 33.59 14.91 33.3 14 33 C9.07 30.91 7.5 27.77 5.21 23.16 C4.14 20.98 4.14 20.98 2.47 19.61 C0.71 17.68 0.51 16.6 0.23 14.02 C0.15 13.27 0.06 12.52 -0.02 11.74 C-0.1 10.96 -0.17 10.18 -0.25 9.38 C-0.34 8.59 -0.43 7.8 -0.52 6.98 C-0.74 4.99 -0.87 3 -1 1 C-0.67 0.67 -0.34 0.34 0 0 Z " fill="#232021" transform="translate(342,220)"/>
<path d="M0 0 C0.99 0.33 1.98 0.66 3 1 C2.54 2.38 2.08 3.75 1.62 5.12 C1.22 6.37 1.22 6.37 0.8 7.63 C0.19 9.45 -0.51 11.23 -1.25 13 C-3.09 20.34 -0.44 26.84 2.03 33.74 C3.09 37.29 3.57 40.69 4 44.38 C4.68 49.82 5.41 52.88 9 57 C11.47 59.93 13.25 62.5 14.75 66 C16.71 70.16 19.22 71.74 23.18 73.91 C25.4 75.24 26.49 76.92 28 79 C29.13 79.41 29.13 79.41 30.28 79.83 C33.54 81.23 35.35 83.02 37.81 85.56 C38.6 86.37 39.39 87.17 40.21 88 C42 90 42 90 42 91 C32.55 91.41 20.11 89.25 12.62 83.12 C11.37 81.8 10.16 80.41 9 79 C8.58 78.51 8.15 78.03 7.72 77.52 C1.29 70.13 -4.31 62.27 -9.56 54 C-10.06 53.21 -10.56 52.42 -11.08 51.61 C-16.23 43.3 -20.26 35.07 -19 25 C-16.48 16.25 -10.41 7.26 -3.19 1.75 C-2.14 1.17 -1.08 0.59 0 0 Z " fill="#242223" transform="translate(332,210)"/>
<path d="M0 0 C15.87 -0.64 29.07 0.74 42 11 C49.63 18.26 53 24.6 54.53 34.97 C55.04 38.27 55.78 41.45 56.63 44.67 C57.82 52.2 56.56 57.31 53.44 64.12 C53.11 64.9 52.79 65.67 52.46 66.46 C49.47 73.16 45.55 77.32 38.89 80.47 C37.88 80.81 36.86 81.15 35.81 81.5 C30.09 83.53 24.82 86.01 19.46 88.86 C17 90 17 90 14 90 C17.49 80.3 25.61 71.98 34 66.19 C39.81 61.87 44.28 56.95 45.61 49.66 C46.03 39.07 43.04 30.3 36.31 22.12 C32.1 17.72 27.33 14.87 22 12 C21.19 11.49 20.37 10.99 19.53 10.47 C12.86 6.6 5.65 4.58 -2 4 C-1.34 2.68 -0.68 1.36 0 0 Z " fill="#242222" transform="translate(522,296)"/>
<path d="M0 0 C4.29 2.94 7.35 6.03 9 11 C9.03 13.85 8.59 16.18 8 19 C3.73 19.53 1.51 18.88 -1.94 16.5 C-5.84 13.91 -8.24 13.25 -13 14 C-15.31 14.86 -17.51 15.85 -19.72 16.93 C-21.92 17.96 -24.06 18.67 -26.38 19.38 C-30.1 20.71 -30.1 20.71 -32.06 23.62 C-33.45 28.61 -32.8 33.06 -31.46 38.01 C-30.69 41.34 -30.94 44.6 -31 48 C-32.75 48.75 -32.75 48.75 -35 49 C-37.25 47.19 -37.25 47.19 -39 45 C-39 44.34 -39 43.68 -39 43 C-39.93 42.77 -40.86 42.55 -41.81 42.31 C-45.56 40.77 -46.33 39.61 -48 36 C-49.94 30.18 -49.97 25.74 -47.32 20.25 C-45.34 16.43 -43.2 12.7 -41 9 C-40.46 8.06 -39.92 7.12 -39.37 6.15 C-36.32 1.36 -30.89 0.03 -25.66 -1.43 C-17.45 -3.19 -8.04 -2.23 0 0 Z " fill="#242223" transform="translate(260,306)"/>
<path d="M0 0 C2 2 2 2 2.39 4.43 C2 7 2 7 0.21 8.66 C-0.58 9.12 -1.37 9.59 -2.19 10.06 C-3.01 10.57 -3.83 11.07 -4.68 11.59 C-5.44 12.06 -6.21 12.52 -7 13 C-10.76 15.7 -12.75 17.98 -15 22 C-16.32 23.67 -17.66 25.34 -19 27 C-20.45 29.91 -20.3 31.74 -20 35 C-19.07 37.28 -18.02 39.47 -16.95 41.69 C-15.54 45.12 -15.32 48.31 -15 52 C-14.34 55.15 -14.34 55.15 -11.79 56.12 C-8.05 57.3 -4.3 57.85 -0.43 58.44 C2 59 2 59 4 61 C4.12 64.38 4.12 64.38 3 68 C-0.02 70.71 -3.3 71.89 -7.32 72.16 C-12.49 71.81 -16.07 70.5 -20 67 C-25.02 60.74 -27.56 54.27 -29.75 46.62 C-30.32 44.68 -30.9 42.73 -31.48 40.79 C-31.73 39.94 -31.97 39.09 -32.23 38.22 C-32.98 35.76 -32.98 35.76 -35 33 C-35.6 28.49 -35.31 24.21 -34.19 19.81 C-31.3 16.1 -27.87 14.25 -23.85 11.87 C-21.07 10.04 -18.97 8.16 -16.69 5.75 C-11.46 0.28 -7.67 -1.92 0 0 Z " fill="#252323" transform="translate(370,437)"/>
<path d="M0 0 C-0.44 3.58 -0.96 6.87 -2.06 10.31 C-3.48 15.89 -4.43 21.15 -1.76 26.46 C-0.25 28.71 1.35 30.86 3 33 C3.58 33.99 4.15 34.98 4.75 36 C5.85 38.14 5.85 38.14 8 39 C11.37 39.56 14.75 40.03 18.13 40.5 C21 41 21 41 22 42 C22.19 44.44 22.19 44.44 22 47 C19.17 49.83 16.76 49.63 12.81 50.12 C10.87 50.38 10.87 50.38 8.89 50.63 C-1.61 51.62 -1.61 51.62 -6.75 49.12 C-7.86 48.6 -7.86 48.6 -8.98 48.07 C-14.89 44.94 -15.97 40.8 -17.99 34.81 C-19.92 28.44 -20.65 22.33 -20.75 15.69 C-20.78 14.8 -20.8 13.91 -20.83 12.99 C-20.75 6.96 -20.75 6.96 -18.69 4.32 C-12.93 -0.64 -7.17 -0.14 0 0 Z " fill="#232121" transform="translate(520,314)"/>
<path d="M0 0 C3.3 0.41 4.59 1.49 7.09 3.64 C9.8 5.91 11.75 7.37 15.03 8.77 C18.43 10.79 18.88 12.69 19.91 16.39 C20.77 18.64 21.95 19.67 23.65 21.33 C24.37 24.68 24.02 26.66 22.38 29.65 C20.32 32.78 18.3 35.68 15.65 38.33 C11.1 37.78 11.1 37.78 9.65 36.33 C7.57 36.44 5.49 36.57 3.4 36.71 C-2.7 36.74 -2.7 36.74 -5.32 35.09 C-8.33 31.28 -8.99 27.42 -8.72 22.65 C-8.21 19.48 -7.2 16.61 -6.07 13.61 C-5.08 10.49 -4.85 7.44 -4.66 4.18 C-4.15 1.17 -2.92 0.41 0 0 Z " fill="#242223" transform="translate(246.34765625,325.66796875)"/>
<path d="M0 0 C3.95 1.28 5.84 2.44 8 6 C8.44 8.59 8.44 8.59 8.56 11.38 C8.77 14.68 9.03 17.09 10.12 20.25 C11.32 24.01 11.17 26.23 10 30 C5.24 35.09 -0.95 36.64 -7.69 37.44 C-11 37 -11 37 -13.44 34.62 C-15 32 -15 32 -15 30 C-15.99 29.67 -16.98 29.34 -18 29 C-19.85 21.59 -19.85 21.59 -17.91 17.95 C-15.67 15.29 -13.6 13.34 -10.56 11.62 C-6.4 8.99 -3.9 4.92 -1 1 C-0.67 0.67 -0.34 0.34 0 0 Z " fill="#242222" transform="translate(380,448)"/>
<path d="M0 0 C0 0.66 0 1.32 0 2 C-0.61 2.05 -1.22 2.1 -1.84 2.16 C-13.12 3.62 -24.49 8.03 -31.63 17.17 C-35.61 22.72 -37.53 27.14 -38 34 C-41 34 -41 34 -43.69 31.56 C-46.4 28.15 -46.4 25.38 -46.08 21.15 C-45.88 19 -45.88 19 -46.61 17.02 C-47.46 12.66 -44.27 8.56 -42 5 C-29.67 -9.77 -15.72 -9.7 0 0 Z " fill="#242424" transform="translate(399,187)"/>
<path d="M0 0 C1.81 0.19 1.81 0.19 4 1 C5.56 3.25 5.56 3.25 7 6 C8.69 9 10.34 11.39 12.62 14 C15.02 17.03 15.73 18.25 16 22 C16.15 23.76 16.15 23.76 16.31 25.56 C16 29 16 29 14.19 31.38 C10.71 33.96 7.72 34.2 3.5 34.31 C2.54 34.35 1.58 34.39 0.59 34.43 C-2 34 -2 34 -3.84 32.11 C-5 30 -5 30 -5 28 C-5.91 28.04 -6.81 28.08 -7.75 28.12 C-10.9 28 -12.42 27.72 -15 26 C-16.41 23.18 -16.25 21.13 -16 18 C-14.06 13.46 -11.23 11.43 -7 9 C-6.34 9 -5.68 9 -5 9 C-4.73 8.26 -4.46 7.51 -4.19 6.75 C-3.06 4.13 -1.79 2.2 0 0 Z " fill="#242222" transform="translate(388,202)"/>
<path d="M0 0 C2.37 1.41 4.75 2.38 7.31 3.38 C8.31 4.38 8.31 4.38 8.5 6.75 C8.31 9.38 8.31 9.38 6.31 12.38 C6.12 14.39 6.12 14.39 6.12 16.56 C5.56 22.51 2.37 25.28 -1.69 29.38 C-3.27 31.21 -4.86 33.04 -6.44 34.88 C-8.67 37.47 -8.67 37.47 -10.69 39.38 C-11.68 39.38 -12.67 39.38 -13.69 39.38 C-14.47 32.03 -12.59 26.7 -9.73 20.05 C-8.08 16.06 -7.28 13.52 -8.69 9.38 C-9.02 8.38 -9.35 7.4 -9.69 6.38 C-11.45 5.3 -11.45 5.3 -13.69 4.38 C-15.61 3.34 -17.52 2.3 -19.44 1.25 C-20.91 0.44 -20.91 0.44 -22.42 -0.38 C-23.17 -0.79 -23.92 -1.2 -24.69 -1.62 C-22.89 -5.52 -22.89 -5.52 -21.06 -6.44 C-12.73 -7.1 -6.92 -4.19 0 0 Z " fill="#252324" transform="translate(424.6875,196.625)"/>
<path d="M0 0 C8.76 1.22 14.42 9.34 20.21 15.47 C22.26 18.37 22.68 20.51 23 24 C19.09 27.58 15.79 30.42 10.31 30.56 C6.54 30.28 3.94 29.5 1 27 C-1.38 23.67 -1.47 19.98 -2 16 C-2.33 15.67 -2.66 15.34 -3 15 C-3.48 9.17 -2.22 5.27 0 0 Z " fill="#242222" transform="translate(528,312)"/>
<path d="M0 0 C0.33 0 0.66 0 1 0 C1.04 1.07 1.07 2.15 1.11 3.25 C1.18 4.69 1.25 6.13 1.31 7.56 C1.34 8.27 1.36 8.97 1.38 9.7 C1.74 16.82 4 22.21 8.62 27.69 C10.95 30.45 12.4 32.41 13 36 C8.85 34.62 7.29 31.69 4.88 28.25 C4.42 27.63 3.96 27.01 3.5 26.37 C-0.98 20.07 -1.16 15.35 -0.56 7.69 C-0.51 6.95 -0.46 6.21 -0.4 5.44 C-0.28 3.63 -0.14 1.81 0 0 Z " fill="#343233" transform="translate(484,332)"/>
<path d="M0 0 C0.66 0.33 1.32 0.66 2 1 C-2.78 7.39 -7.03 10.41 -15 12 C-10 8 -5 4 0 0 Z " fill="#323232" transform="translate(585,642)"/>
<path d="M0 0 C0.33 0 0.66 0 1 0 C1 1.65 1 3.3 1 5 C-0.32 5.33 -1.64 5.66 -3 6 C-3 7.65 -3 9.3 -3 11 C-4.32 11.33 -5.64 11.66 -7 12 C-5.48 7.44 -3.05 3.68 0 0 Z " fill="#363334" transform="translate(543,374)"/>
<path d="M0 0 C0.99 0.33 1.98 0.66 3 1 C3.19 3.88 3.19 3.88 3 7 C1.51 7.99 1.51 7.99 0 9 C-1 8 -1 8 -1.12 4.5 C-1 1 -1 1 0 0 Z " fill="#383637" transform="translate(519,238)"/>
<path d="M0 0 C2.01 0.29 4.01 0.62 6 1 C4.62 2.5 4.62 2.5 3 4 C2.34 4 1.68 4 1 4 C1.33 5.65 1.66 7.3 2 9 C1.34 8.67 0.68 8.34 0 8 C-0.69 4.5 -0.69 4.5 -1 1 C-0.67 0.67 -0.34 0.34 0 0 Z " fill="#363434" transform="translate(315,297)"/>
<path d="M0 0 C1.94 2.92 2.39 4.15 2.81 7.5 C2.98 8.66 2.98 8.66 3.14 9.84 C3 12 3 12 0 15 C0 10.05 0 5.1 0 0 Z " fill="#363435" transform="translate(456,191)"/>
<path d="M0 0 C1.04 3.38 1.08 6.48 1 10 C-0.32 9.67 -1.64 9.34 -3 9 C-2.44 5.66 -1.65 2.97 0 0 Z " fill="#343434" transform="translate(175,554)"/>
<path d="M0 0 C1.49 0.17 1.49 0.17 3.01 0.34 C3.77 0.43 4.53 0.53 5.31 0.62 C5.31 1.29 5.31 1.94 5.31 2.62 C-1.62 2.13 -1.62 2.13 -8.69 1.62 C-5.14 -0.74 -4.11 -0.48 0 0 Z " fill="#353233" transform="translate(211.6875,474.375)"/>
<path d="M0 0 C0.33 1.32 0.66 2.64 1 4 C-2.82 5.37 -6.07 4.68 -10 4 C-6.77 2.26 -3.49 1.11 0 0 Z " fill="#333131" transform="translate(532,268)"/>
<path d="M0 0 C0.99 0.66 1.98 1.32 3 2 C1.35 3.98 -0.3 5.96 -2 8 C-2.66 7.67 -3.32 7.34 -4 7 C-1.12 1.12 -1.12 1.12 0 0 Z " fill="#302E2F" transform="translate(564,214)"/>
<path d="M0 0 C3.3 1.65 6.6 3.3 10 5 C9.34 5.66 8.68 6.32 8 7 C5.36 5.68 2.72 4.36 0 3 C0 2.01 0 1.02 0 0 Z " fill="#363435" transform="translate(513,437)"/>
<path d="M0 0 C0 2.66 -0.19 4.5 -1 7 C-3 9 -3 9 -5 10 C-4.5 5.6 -2.91 3.29 0 0 Z " fill="#353233" transform="translate(190,506)"/>
<path d="M0 0 C0.33 0.66 0.66 1.32 1 2 C-0.32 3.65 -1.64 5.3 -3 7 C-3.99 6.67 -4.98 6.34 -6 6 C-4.02 4.02 -2.04 2.04 0 0 Z " fill="#363435" transform="translate(299,436)"/>
<path d="M0 0 C-0.66 0 -1.32 0 -2 0 C-2 0.99 -2 1.98 -2 3 C-3.65 3 -5.3 3 -7 3 C-6.67 2.01 -6.34 1.02 -6 0 C-3.51 -1.25 -2.59 -0.78 0 0 Z " fill="#343232" transform="translate(390,316)"/>
<path d="M0 0 C-0.33 1.32 -0.66 2.64 -1 4 C-1 3.34 -1 2.68 -1 2 C-1.99 2.33 -2.98 2.66 -4 3 C-4.66 2.67 -5.32 2.34 -6 2 C-6 1.34 -6 0.68 -6 0 C-3.51 -1.25 -2.59 -0.78 0 0 Z " fill="#333132" transform="translate(572,204)"/>
</svg>
